<?xml version="1.0" encoding="UTF-8"?>
<svg id="Layer_2" data-name="Layer 2" xmlns="http://www.w3.org/2000/svg" viewBox="0 0 1496.98 1496.88">
  <defs>
    <style>
      .cls-1 {
        fill: #fff;
        stroke-width: 0px;
      }
    </style>
  </defs>
  <g id="Layer_1-2" data-name="Layer 1">
    <g>
      <path class="cls-1" d="m988.76,1026.01c-4.83-4.55-8.63-8.44-11.09-11.09-.38-.38-.66-.66-.66-.66l-1.71-1.52-64.36-64.36c-10.62,8.63-21.8,16.21-33.36,22.94l32.13,32.03c7.3,6.54,47.3,44.45,49.76,99.71,1.71,38.67-14.79,75.73-49.19,110.04l-47.68,47.77-114.12,114.12-119.14-119.14-42.75-42.75c-34.31-34.31-50.9-71.37-49.19-110.04,2.47-55.26,42.56-93.17,49.86-99.71l31.94-31.85c-11.56-6.73-22.75-14.31-33.36-22.94l-65.97,65.78s-.28.19-.57.47c-2.46,2.75-6.26,6.63-11.18,11.18-17.25,18.77-47.87,58.86-49.95,109.47-1.9,45.4,19.52,90.61,63.5,134.59l31,31.09c.09-.38.19-.66.28-.95,1.61-4.36,3.79-8.53,6.16-12.42,2.65-3.7,5.59-7.11,8.91-10.05,3.32-2.84,7.01-5.12,10.52-7.11,3.6-1.99,7.58-3.13,11.18-4.17,3.7-.95,7.39-1.42,10.8-1.42,3.22-.28,6.54.1,9.1.28,2.37.09,4.93.85,6.35,1.14,1.42.28,2.27.47,2.27.47l3.13,3.22s-1.04,1.23-2.84,3.6c-1.8,2.27-4.36,5.5-7.11,9.57-1.33,2.09-3.03,4.17-4.45,6.64-1.42,2.47-2.84,5.02-4.46,7.58-1.42,2.75-2.75,5.59-4.17,8.44-1.14,3.03-2.46,5.97-3.51,9-.95,3.13-2.28,6.07-2.94,9.19-.76,3.13-1.52,6.16-1.89,9.19-.28,1.52-.47,2.94-.66,4.45l159.14,159.04,153.16-153.17c-.28-2.08-.57-4.26-.95-6.54-.38-3.03-1.14-6.07-1.99-9.19-.57-3.13-1.9-6.16-2.84-9.19-1.04-3.03-2.37-6.07-3.51-9-1.42-2.94-2.84-5.69-4.17-8.44-1.61-2.56-3.03-5.21-4.46-7.58-1.42-2.46-3.13-4.55-4.45-6.63-2.75-4.08-5.4-7.3-7.11-9.67-1.8-2.27-2.84-3.6-2.84-3.6l3.13-3.13s.76-.19,2.27-.47c1.42-.28,3.89-1.04,6.35-1.14,2.56-.28,5.88-.66,9.1-.38,3.41.09,7.11.57,10.71,1.52,3.7.95,7.58,2.18,11.18,4.08,3.6,1.99,7.3,4.36,10.62,7.2,3.22,2.94,6.16,6.35,8.81,10.04,2.47,3.89,4.65,7.96,6.26,12.42.28.95.47,1.9.76,2.84l36.78-36.78c43.98-43.98,65.31-89.19,63.5-134.59-2.08-50.61-32.7-90.71-50.04-109.47Z"/>
      <path class="cls-1" d="m748.21,1006.01c-26.07,0-52.23-3.98-77.34-11.85l-48.72,48.62c-.19.19-30.71,26.73-32.13,62.94-.95,23.22,10.52,46.82,33.84,70.23l124.64,124.64,124.64-124.64c23.51-23.51,34.88-47.2,33.84-70.61-1.61-36.02-31.85-62.27-32.13-62.56l-1.71-1.52-47.2-47.2c-25.21,7.96-51.47,11.94-77.72,11.94Z"/>
      <path class="cls-1" d="m482.06,977.58c.28-.29.57-.57.57-.57l1.52-1.71,64.17-64.16c-8.53-10.52-16.21-21.71-23.03-33.27l-31.75,31.75c-6.54,7.39-44.36,47.39-99.62,49.86-1.8.1-3.7.1-5.5.1-36.68,0-71.84-16.49-104.64-49.29l-42.65-42.65-119.14-119.14,110.9-110.99,50.9-50.9c34.4-34.31,71.37-50.9,110.14-49.19,55.26,2.46,93.07,42.46,99.62,49.86l31.75,31.75c6.82-11.56,14.5-22.75,23.03-33.27l-65.68-65.87s-.28-.28-.57-.66c-2.75-2.47-6.54-6.16-11.09-11-18.77-17.34-58.86-47.96-109.57-50.05-45.4-1.99-90.61,19.53-134.59,63.41l-36.68,36.78c.95.28,1.9.57,2.84.85,4.36,1.52,8.44,3.79,12.32,6.16,3.7,2.65,7.2,5.59,10.05,8.91,2.84,3.32,5.21,6.92,7.2,10.52,1.99,3.6,3.13,7.58,4.17,11.19.95,3.7,1.42,7.3,1.42,10.8.28,3.13-.1,6.44-.28,9-.19,2.47-.85,4.93-1.14,6.35-.38,1.52-.57,2.28-.57,2.28l-3.13,3.22s-1.33-1.04-3.6-2.84c-2.27-1.8-5.5-4.46-9.67-7.11-1.99-1.42-4.07-3.13-6.54-4.46-2.47-1.42-5.02-2.84-7.58-4.45-2.75-1.42-5.59-2.84-8.44-4.27-3.03-1.14-5.97-2.37-9-3.41-3.13-.95-6.16-2.28-9.29-2.94-3.03-.85-6.07-1.52-9.1-1.99-2.27-.38-4.45-.57-6.63-.85L0,748.49l159.14,159.04c1.42-.19,2.84-.38,4.46-.57,2.94-.47,6.07-1.14,9.1-1.99,3.13-.66,6.16-1.9,9.19-2.84,3.13-1.04,6.07-2.37,9-3.51,2.94-1.42,5.69-2.84,8.44-4.17,2.56-1.61,5.21-3.13,7.58-4.55,2.47-1.33,4.55-3.03,6.64-4.36,4.17-2.75,7.3-5.4,9.67-7.2,2.28-1.8,3.6-2.75,3.6-2.75l3.13,3.13s.19.76.57,2.27c.19,1.42.95,3.89,1.04,6.35.29,2.56.66,5.88.38,9.1-.09,3.41-.47,7.11-1.51,10.71-.95,3.6-2.18,7.58-4.08,11.19-1.99,3.6-4.36,7.2-7.2,10.52-2.94,3.32-6.35,6.26-10.05,8.91-3.89,2.37-7.96,4.65-12.32,6.25-.38.1-.66.1-.95.19l31,31.09c44.17,44.07,89.57,65.4,135.06,63.41,50.04-2.18,89.19-31.66,108.15-49,5.02-5.4,9.19-9.48,12.04-12.13Z"/>
      <path class="cls-1" d="m1042.88,874.83c.09.19,26.63,30.71,62.94,32.13,22.94.95,46.82-10.52,70.14-33.84l124.64-124.64-124.64-124.64c-23.32-23.41-46.73-34.78-70.14-33.84-36.3,1.33-62.84,31.85-63.03,32.23l-1.52,1.61-47.2,47.11c7.77,24.74,11.85,50.8,11.85,77.53s-4.08,52.7-11.85,77.44l48.81,48.91Z"/>
      <path class="cls-1" d="m1337.84,589.35c-1.52.19-2.94.38-4.46.66-3.03.38-6.07,1.04-9.1,1.9-3.13.66-6.16,1.99-9.29,2.94-3.03,1.04-5.97,2.27-9,3.41-2.84,1.42-5.69,2.84-8.34,4.27-2.65,1.61-5.21,3.03-7.68,4.46-2.46,1.33-4.55,3.03-6.54,4.46-4.17,2.65-7.39,5.31-9.67,7.11-2.27,1.8-3.6,2.84-3.6,2.84l-3.13-3.13s-.19-.85-.57-2.37c-.28-1.42-.95-3.89-1.14-6.35-.19-2.56-.57-5.88-.28-9,.09-3.41.47-7.11,1.42-10.81,1.04-3.6,2.18-7.58,4.17-11.18,1.99-3.6,4.36-7.2,7.2-10.52,2.84-3.31,6.35-6.25,10.05-8.91,3.89-2.37,7.96-4.55,12.32-6.16.29-.1.66-.19.95-.28l-31.09-31.09c-44.07-44.07-89.47-65.4-134.97-63.41-50.04,2.27-89.28,31.66-108.24,49.1-4.93,5.31-9.1,9.38-11.94,12.04l-.57.57-1.61,1.71-64.45,64.45c8.63,10.61,16.3,21.71,23.03,33.36l32.13-32.13c6.44-7.39,44.36-47.39,99.61-49.86,38.77-1.71,75.73,14.88,110.04,49.19l45.97,45.97,115.92,115.92-110.99,110.99-50.9,50.8c-32.7,32.7-67.86,49.29-104.64,49.29-1.8,0-3.6,0-5.4-.1-55.26-2.46-93.17-42.46-99.61-49.86l-32.13-32.04c-6.73,11.56-14.41,22.75-23.03,33.27l66.06,66.16s.28.28.47.57c2.75,2.56,6.64,6.25,11.28,11.18,18.77,17.34,58.76,47.86,109.47,49.95,45.31,1.9,90.52-19.43,134.49-63.41l36.77-36.77c-.95-.28-1.9-.47-2.84-.76-4.36-1.61-8.53-3.89-12.42-6.26-3.7-2.65-7.11-5.59-10.05-8.91-2.84-3.32-5.12-6.92-7.11-10.52-1.99-3.6-3.13-7.58-4.17-11.18-.95-3.6-1.42-7.3-1.42-10.71-.28-3.22.09-6.54.28-9.1.1-2.47.85-4.93,1.14-6.35.28-1.52.47-2.28.47-2.28l3.13-3.13s1.33,1.04,3.7,2.75c2.28,1.8,5.5,4.46,9.57,7.2,2.09,1.33,4.17,3.03,6.64,4.46,2.46,1.33,5.02,2.84,7.58,4.45,2.75,1.33,5.59,2.75,8.44,4.17,2.94,1.14,5.97,2.46,9.01,3.51,3.13.95,6.06,2.18,9.19,2.84,3.13.85,6.16,1.52,9.2,1.99,2.27.38,4.46.66,6.63.95l153.17-153.17-159.14-159.14Z"/>
      <path class="cls-1" d="m454.1,622.05c-.19-.19-26.73-30.71-62.94-32.04-23.22-.95-46.82,10.43-70.14,33.84l-124.64,124.64,124.64,124.64c23.51,23.41,47.2,34.78,70.52,33.74,36.11-1.52,62.27-31.75,62.56-32.03l1.61-1.71,46.73-46.82c-7.77-24.83-11.94-50.99-11.94-77.82s4.17-53.08,12.04-77.91l-48.43-48.53Z"/>
      <path class="cls-1" d="m508.22,470.97c4.83,4.55,8.53,8.34,11,10.99.47.38.76.66.76.66l1.71,1.52,64.17,64.17c10.61-8.63,21.8-16.21,33.36-22.94l-31.94-31.85c-7.3-6.54-47.39-44.45-49.86-99.71-1.71-38.67,14.88-75.64,49.19-110.04l50.9-50.9,110.99-110.9,119.14,119.14,42.65,42.65c34.4,34.41,50.9,71.37,49.19,110.04-2.47,55.26-42.46,93.17-49.76,99.71l-32.13,32.03c11.56,6.73,22.75,14.41,33.36,23.03l66.06-65.97c.09-.1.28-.28.66-.57,2.47-2.75,6.26-6.54,11.09-11.19,17.34-18.77,47.96-58.76,50.04-109.47,1.8-45.31-19.52-90.61-63.5-134.59l-31.09-30.99c-.1.28-.1.57-.19.85-1.61,4.46-3.89,8.53-6.26,12.42-2.65,3.7-5.59,7.11-8.82,10.04-3.32,2.84-7.01,5.21-10.61,7.2-3.6,1.9-7.49,3.13-11.18,4.08-3.6.95-7.3,1.42-10.71,1.52-3.22.28-6.54-.1-9.1-.38-2.47-.09-4.93-.85-6.35-1.14-1.52-.28-2.28-.47-2.28-.47l-3.13-3.13s1.04-1.33,2.84-3.6c1.71-2.37,4.36-5.59,7.11-9.67,1.33-2.08,3.03-4.17,4.45-6.63,1.33-2.47,2.84-5.02,4.46-7.58,1.33-2.75,2.75-5.59,4.17-8.43,1.14-2.94,2.46-5.97,3.51-9,.95-3.13,2.28-6.07,2.84-9.2.85-3.13,1.52-6.16,1.99-9.19.28-1.52.38-2.94.57-4.36L748.49,0l-153.17,153.17c.28,2.18.57,4.36.95,6.64.38,3.03,1.14,6.07,1.9,9.1.66,3.13,1.99,6.16,2.94,9.19,1.04,3.13,2.37,6.07,3.41,9.1,1.52,2.84,2.84,5.69,4.27,8.34,1.61,2.65,3.03,5.21,4.46,7.68,1.42,2.37,3.03,4.45,4.46,6.54,2.65,4.17,5.31,7.39,7.11,9.67,1.8,2.28,2.84,3.6,2.84,3.6l-3.13,3.13s-.85.19-2.28.57c-1.42.19-3.98.95-6.45,1.04-2.46.28-5.88.66-9,.38-3.41-.1-7.11-.47-10.81-1.52-3.6-.95-7.58-2.18-11.18-4.08-3.51-1.99-7.2-4.36-10.52-7.2-3.31-2.94-6.25-6.35-8.91-10.05-2.37-3.89-4.55-7.96-6.16-12.32-.29-.95-.57-1.9-.86-2.94l-36.68,36.78c-43.98,43.98-65.4,89.28-63.5,134.59,2.09,50.71,32.79,90.8,50.04,109.57Z"/>
      <path class="cls-1" d="m670.86,502.72c50.43-15.73,104.73-15.73,155.06.09l48.91-48.72c.19-.19,30.71-26.73,32.13-62.93.85-23.22-10.52-46.82-33.84-70.14l-124.64-124.64-124.64,124.64c-23.32,23.32-34.78,46.92-33.84,70.14,1.42,36.21,31.94,62.75,32.22,63.03l1.61,1.52,47.01,47.01Z"/>
      <path class="cls-1" d="m950.51,748.49c0-111.39-90.63-202.02-202.02-202.02s-202.02,90.63-202.02,202.02,90.63,202.02,202.02,202.02,202.02-90.63,202.02-202.02Zm-202.02,161.31c-88.91,0-161.31-72.4-161.31-161.31s72.39-161.31,161.31-161.31,161.31,72.4,161.31,161.31-72.39,161.31-161.31,161.31Z"/>
      <path class="cls-1" d="m748.49,637.28c-61.29,0-111.21,49.92-111.21,111.21s49.92,111.21,111.21,111.21,111.21-49.92,111.21-111.21-49.92-111.21-111.21-111.21Z"/>
    </g>
  </g>
</svg>